<svg width="45" height="50" viewBox="0 0 45 50" fill="none" xmlns="http://www.w3.org/2000/svg">
<path d="M0.145447 0.145264H44.1158V30.5616C44.1158 39.8693 34.3083 49.8306 22.1246 49.8306C10.6077 49.8427 0.145447 39.712 0.145447 30.5737V0.145264Z" fill="#ED1C24" stroke="#ED1C24" stroke-width="0.25" stroke-miterlimit="3.86"/>
<path d="M0.65464 34.0353C2.48522 31.6025 3.75815 33.8417 5.1523 30.2711C6.01304 28.0683 5.50387 25.7444 10.5592 24.4372C16.2692 22.9605 12.0382 17.9133 19.1908 16.1704C24.6705 14.839 20.2213 8.89615 28.2468 7.64948C32.6959 6.95957 30.0289 1.6945 35.2054 0.121033L44.0916 0.157344V7.45582C37.0481 8.02469 40.0061 14.6212 34.5144 15.4079C27.3981 16.4246 31.9928 22.5369 24.6705 23.9288C19.1908 24.9697 22.6701 30.3679 16.9965 31.8446C11.1653 33.3696 12.9596 35.4999 11.1532 38.1143C9.4075 40.6318 6.66769 39.6635 5.22504 41.9632C3.45507 40.2687 1.27292 36.8676 0.642517 34.0474L0.65464 34.0353Z" fill="#FDB924"/>
<path d="M33.7506 33.3818C33.7143 34.1322 31.8109 34.6042 32.0049 34.6889C33.0475 35.161 33.7021 35.5362 33.7021 35.5362C34.9993 35.04 35.5206 33.9869 35.4115 32.946C35.2903 31.7599 34.1386 31.1063 33.0111 31.5057C32.7687 31.5904 32.3565 31.893 32.4171 32.2682C32.4777 32.6555 33.1566 32.1472 33.1566 32.3287C33.1566 32.5466 32.9505 32.2682 32.7202 32.6555C32.5504 32.946 33.0475 33.2728 33.4839 32.9218C33.6173 32.9944 33.7627 33.1276 33.7506 33.3818Z" fill="#FDB924" stroke="#ED1C24" stroke-width="0.22" stroke-miterlimit="3.86"/>
<path d="M30.1743 43.8514L30.1986 44.6865C29.0105 44.8318 29.5924 45.7516 28.7195 45.6911C27.8224 45.449 28.4043 43.9603 29.3136 43.5851C29.7864 43.7787 29.7985 43.6819 30.1743 43.8635V43.8514Z" fill="#FDB924" stroke="#ED1C24" stroke-width="0.22" stroke-miterlimit="3.86"/>
<path d="M28.2104 25.6596C28.2104 25.6596 28.4771 26.64 28.9014 27.1242C29.1803 27.5236 30.138 28.0562 30.1501 26.5674C29.5803 26.2527 29.2045 25.6596 29.2045 24.9697C29.2045 23.9651 30.0289 23.1421 31.0351 23.1421C32.0413 23.1421 32.8657 23.9651 32.8657 24.9697C32.8657 25.6475 32.502 26.2285 31.9564 26.5432C31.9564 28.0562 32.9263 27.5115 33.2051 27.1242C33.6294 26.64 33.8961 25.6596 33.8961 25.6596C38.4787 25.817 38.7696 25.0303 38.9393 25.3692C39.1818 26.4585 36.3086 26.8821 36.6844 27.0152C37.5694 27.4026 38.7696 26.7974 38.6969 27.1484C38.4787 28.2256 36.1268 28.2498 35.9934 28.4798C35.9207 28.8187 37.6422 28.734 37.7149 28.976C37.8846 29.6296 34.8902 29.6901 34.6963 29.6538C34.478 29.908 35.8722 29.8959 35.7873 30.1985C35.5327 30.7795 33.5688 30.1501 33.4839 30.2106C33.193 30.4648 34.4053 30.7553 34.0537 31.0336C33.9446 31.191 32.6353 31.1789 31.8716 30.4285L31.7988 45.6185C31.7988 46.4415 30.2471 46.732 30.3198 45.6185L30.2592 30.4164C29.5076 31.1789 28.1619 31.2031 28.0528 31.0336C27.7012 30.7553 28.9014 30.4648 28.6226 30.2106C28.5377 30.138 26.5738 30.7674 26.3192 30.1985C26.2343 29.8959 27.6285 29.908 27.4103 29.6538C27.2284 29.6901 24.2219 29.6175 24.3916 28.976C24.4644 28.734 26.1737 28.8187 26.1131 28.4798C25.9798 28.2619 23.6279 28.2256 23.4097 27.1484C23.3369 26.7974 24.5371 27.4026 25.4221 27.0152C25.7979 26.8821 22.9369 26.4585 23.1672 25.3692C23.3369 25.0303 23.6279 25.8049 28.2104 25.6596Z" fill="#FDB924"/>
<path d="M32.0049 34.7494C34.5872 35.2457 35.6782 38.4531 32.7808 39.373C32.7566 39.373 32.3565 39.1914 31.9807 39.022C31.9443 39.0583 31.9807 38.5742 31.9807 38.5742C33.6173 37.9206 33.3142 36.3592 30.9502 35.9719C26.8284 35.282 26.5496 34.35 26.5496 33.1154C26.5496 32.2198 27.5194 31.0094 28.8893 31.4693C29.1318 31.5541 29.6773 31.9051 29.5682 32.2924C29.447 32.7039 28.7681 32.1471 28.6953 32.3529C28.6469 32.486 29.253 32.4255 29.3864 32.6071C29.5803 32.8855 28.8772 33.3333 28.3074 32.8855C28.1741 32.9581 28.0407 33.2123 28.1377 33.4422C28.368 33.9869 28.9257 34.0595 30.4168 34.3984C30.9139 34.5073 31.2412 34.4831 32.0049 34.7373V34.7494Z" fill="#FDB924" stroke="#ED1C24" stroke-width="0.22" stroke-miterlimit="3.86"/>
<path d="M28.6347 35.4878C28.6347 35.4878 29.4712 35.7783 30.1137 35.9235C30.1501 35.8872 30.1137 36.4561 30.1137 36.4561C29.5318 36.565 29.1803 37.0371 29.1439 37.2912C29.0711 37.9811 29.3015 38.2958 31.1927 38.901C34.575 39.6635 34.2113 41.2854 34.0659 41.8785C33.884 42.6289 33.193 43.101 32.4777 43.3551C32.308 43.3551 32.2595 43.2099 31.9443 43.0404C31.9079 43.0283 31.9443 42.641 31.9443 42.641C31.9443 42.5926 32.6959 42.0964 32.6959 41.588C32.6959 41.1644 32.6596 40.6197 31.0351 40.184C26.1859 39.3246 27.083 36.2745 28.6468 35.4878H28.6347Z" fill="#FDB924" stroke="#ED1C24" stroke-width="0.22" stroke-miterlimit="3.86"/>
<path d="M28.368 42.8226C28.9499 43.4036 29.9561 43.7061 29.9561 43.7061C30.8775 44.1419 30.9381 44.1419 31.4957 44.3961C32.6959 44.8318 32.4777 45.8122 33.0475 45.6911C33.7385 45.4491 33.4718 44.045 32.3322 43.4399C31.4472 42.9557 31.0472 42.8589 30.5501 42.6289C28.9256 41.8543 28.865 41.007 30.1016 40.1235C29.556 39.8572 29.2045 39.8572 28.8529 39.603C27.9315 40.0145 27.1072 41.5759 28.3559 42.8347L28.368 42.8226Z" fill="#FDB924" stroke="#ED1C24" stroke-width="0.22" stroke-miterlimit="3.86"/>
<path d="M12.3777 9.81604V22.0044H7.01929V9.81604H12.3777Z" fill="#FDB924"/>
<path d="M3.23688 3.31641H14.1234L16.9966 5.80975V9.16245H12.3777H7.01928H3.23688V3.31641Z" fill="#FDB924"/>
</svg>
